# This file uses centimeters as units for non-parametric coordinates.

mtllib Cheesewheel.mtl
g default
v 2.357749 2.317968 -2.826745
v 2.369685 1.479500 -2.826745
v 0.746168 1.479500 -3.764084
v -6.590196 3.083946 5.229820
v -7.784849 2.317968 3.046332
v -6.743481 2.317968 5.392173
v -4.515920 0.152477 6.476005
v -6.482447 0.713521 5.191717
v -6.215728 0.152477 4.961602
v -1.708480 -0.018980 1.674556
v -1.711898 -0.018980 1.667425
v -1.790118 3.904092 1.504220
v -4.445363 3.904092 -2.866966
v -6.097226 3.904092 -1.379621
v -1.699688 3.904092 1.692901
v 0.744717 2.317968 -3.760774
v 1.610598 -0.106624 -1.833907
v -6.418769 3.644991 5.063704
v -7.001323 3.904092 2.873811
v -7.390985 3.644991 2.930146
v -1.568070 -0.018980 1.514608
v -1.615544 -0.018980 1.622894
v -4.295023 -0.106624 5.953388
v -7.001323 3.904092 0.651009
v -1.688589 3.904092 1.716059
v 1.915107 0.152477 -2.282369
v 3.259557 0.152477 -0.451370
v -7.599177 3.083946 2.988904
v 2.227983 3.083946 -2.621481
v 0.642157 3.083946 -3.526839
v 2.141488 0.713521 -2.573306
v 3.567473 0.713521 -0.610605
v 2.845209 -0.106624 -0.205918
v -4.679554 0.713521 6.815049
v -6.097228 3.904092 4.904442
v -4.850071 1.479500 7.110395
v -6.758350 1.479500 5.392173
v 0.416224 3.904092 -3.011493
v 1.804276 3.904092 -2.210101
v -1.702413 -0.018980 1.687217
v -1.683003 3.904092 1.727715
v -2.297381 -0.106624 6.575225
v -1.631825 -0.018980 1.660032
v -4.746695 3.083946 6.871190
v 3.862656 2.317968 -0.749316
v -4.840806 2.317968 7.110395
v -4.642440 3.644991 6.626439
v -2.340553 0.152477 7.175385
v 0.534831 3.644991 -3.282031
v 2.078098 3.644991 -2.411458
v 3.281917 -0.106624 1.762411
v 3.879025 1.479500 -0.749316
v -1.642904 -0.018980 1.685301
v 3.735118 0.152477 1.762411
v -1.657996 3.904092 1.719726
v -1.657673 3.904092 1.722257
v -1.654407 3.904092 1.711540
v -1.658505 3.904092 1.720887
v -1.658770 3.904092 1.721491
v -1.658990 3.904092 1.721993
v -1.659255 3.904092 1.722598
v -1.659762 3.904092 1.723754
v -1.663066 3.904092 1.731291
v 3.686087 3.083946 -0.636972
v -1.671772 -0.018980 1.751148
v -1.671466 -0.018980 1.750452
v -1.652282 -0.018980 1.706694
v 4.071875 0.713521 1.762411
v 3.110805 3.904092 -0.411816
v -2.372260 0.713521 7.564734
v -1.678473 3.904092 1.737166
v -4.445364 3.904092 6.391788
v -0.208441 -0.106624 6.364882
v 2.845209 -0.106624 3.730742
v -2.407908 1.479500 7.903902
v 3.483072 3.644991 -0.522022
v -0.065767 0.152477 6.938812
v 1.610598 -0.106624 5.358730
v -2.387432 3.083946 7.629206
v 4.394974 2.317968 1.762411
v 0.040482 0.713521 7.311146
v -2.405814 2.317968 7.903902
v -2.369143 3.644991 7.348140
v 3.259558 0.152477 3.976193
v 3.572953 3.904092 1.762411
v 4.412910 1.479500 1.762411
v 1.915107 0.152477 5.807192
v 4.201849 3.083946 1.762411
v -1.673174 3.904092 1.748223
v 3.567474 0.713521 4.135428
v -2.331354 3.904092 7.078671
v -0.120728 3.904092 6.846326
v 2.141488 0.713521 6.098129
v 3.110806 3.904092 3.936640
v 0.140462 2.317968 7.635490
v 3.980041 3.644991 1.762411
v 3.879026 1.479500 4.274140
v 1.804276 3.904092 5.734924
v 0.145868 1.479500 7.635490
v 0.079654 3.083946 7.372799
v 3.686087 3.083946 4.161796
v 3.862657 2.317968 4.274140
v 3.483073 3.644991 4.046846
v 0.008049 3.644991 7.104016
v 2.369685 1.479500 6.351569
v 2.357749 2.317968 6.351569
v 2.227983 3.083946 6.146305
v 2.078098 3.644991 5.936281
v -1.671772 3.904092 1.751148
v 0.611407 0.713521 -3.456699
v 0.460802 0.152477 -3.113175
v 0.233819 -0.106624 -2.595435
v -5.855959 -0.106624 4.606894
v -3.960594 3.904092 -3.024477
v -7.469202 0.713521 2.975426
v -7.802786 1.479500 3.046332
v -7.146063 0.152477 2.894030
v -1.714607 -0.018980 1.661772
v -6.710287 -0.106624 2.768562
v -7.390985 3.644991 0.594675
v -1.718040 -0.018980 1.654609
v -1.776462 -0.018980 1.532712
v -6.418768 3.644991 -1.538883
v -4.642439 3.644991 -3.101618
v -7.599177 3.083946 0.535916
v -1.724763 -0.018980 1.640584
v -6.590195 3.083946 -1.704999
v -4.199178 3.083946 -3.522281
v -4.746693 3.083946 -3.346369
v -7.784849 2.317968 0.478489
v -5.855958 -0.106624 -1.082073
v -6.743480 2.317968 -1.867352
v -4.295022 -0.106624 -2.428567
v -4.312089 2.317968 -3.757869
v -4.840805 2.317968 -3.585573
v -6.710287 -0.106624 0.756258
v -6.758349 1.479500 -1.867352
v -7.802786 1.479500 0.478489
v -4.082728 3.644991 -3.279308
v -4.850070 1.479500 -3.585573
v -7.146062 0.152477 0.630791
v -7.469202 0.713521 0.549394
v -6.215727 0.152477 -1.436781
v -4.679552 0.713521 -3.290228
v -4.167674 0.713521 -3.456547
v -4.515919 0.152477 -2.951184
v -4.004300 0.152477 -3.115669
v -6.482446 0.713521 -1.666896
v -3.755485 -0.106624 -2.596517
v -4.313128 1.479500 -3.760036
v -1.671772 2.932841 1.751148
v -1.671772 3.503797 1.751148
v -1.671772 2.010769 1.751148
v -1.671772 1.024435 1.751148
v -1.671772 0.487109 1.751148
v -1.671772 0.216405 1.751148
v -1.671772 0.169434 1.751148
vt 0.066667 0.533333
vt 0.066667 0.466667
vt 0.115337 0.466667
vt 0.533333 0.600000
vt 0.466667 0.533333
vt 0.533333 0.533333
vt 0.600000 0.333333
vt 0.533333 0.400000
vt 0.533333 0.333333
vt 0.380100 0.200000
vt 0.379621 0.200000
vt 0.247517 0.733333
vt 0.266667 0.733333
vt 0.333333 0.733333
vt 0.247383 0.733333
vt 0.115165 0.533333
vt 0.066667 0.266667
vt 0.533333 0.666667
vt 0.466667 0.733333
vt 0.466667 0.666667
vt 0.361436 0.200000
vt 0.395109 0.200000
vt 0.600000 0.266667
vt 0.400000 0.733333
vt 0.247450 0.733333
vt 0.066667 0.333333
vt 0.000000 0.333333
vt 0.466667 0.600000
vt 0.066667 0.600000
vt 0.115878 0.600000
vt 0.066667 0.400000
vt 0.000000 0.400000
vt 0.000000 0.266667
vt 0.600000 0.400000
vt 0.533333 0.733333
vt 0.600000 0.466667
vt 0.533333 0.466667
vt 0.114738 0.733333
vt 0.066667 0.733333
vt 0.381252 0.200000
vt 0.247605 0.733333
vt 0.666667 0.266667
vt 0.389540 0.200000
vt 1.000000 0.266667
vt 0.600000 0.600000
vt 0.000000 0.533333
vt 0.600000 0.533333
vt 0.600000 0.666667
vt 0.666667 0.333333
vt 0.116368 0.666667
vt 0.066667 0.666667
vt 0.933333 0.266667
vt 0.000000 0.466667
vt 0.387481 0.200000
vt 1.000000 0.333333
vt 0.933333 0.333333
vt 0.246540 0.733333
vt 0.246562 0.733333
vt 0.246321 0.733333
vt 0.246568 0.733333
vt 0.246583 0.733333
vt 0.246600 0.733333
vt 0.246627 0.733333
vt 0.246697 0.733333
vt 0.247246 0.733333
vt 0.000000 0.600000
vt 0.388336 0.200000
vt 0.388293 0.200000
vt 0.387112 0.200000
vt 1.000000 0.400000
vt 0.933333 0.400000
vt 0.000000 0.733333
vt 0.666667 0.400000
vt 0.247906 0.733333
vt 0.600000 0.733333
vt 0.733333 0.266667
vt 0.866667 0.266667
vt 0.666667 0.466667
vt 0.000000 0.666667
vt 0.733333 0.333333
vt 0.800000 0.266667
vt 0.666667 0.600000
vt 1.000000 0.533333
vt 0.933333 0.533333
vt 1.000000 0.466667
vt 0.733333 0.400000
vt 0.666667 0.533333
vt 0.666667 0.666667
vt 0.866667 0.333333
vt 0.933333 0.733333
vt 1.000000 0.600000
vt 0.933333 0.466667
vt 0.800000 0.333333
vt 1.000000 0.666667
vt 0.933333 0.600000
vt 0.248527 0.733333
vt 0.866667 0.400000
vt 1.000000 0.733333
vt 0.666667 0.733333
vt 0.733333 0.733333
vt 0.800000 0.400000
vt 0.866667 0.733333
vt 0.733333 0.533333
vt 0.933333 0.666667
vt 0.866667 0.466667
vt 0.800000 0.733333
vt 0.733333 0.466667
vt 0.733333 0.600000
vt 0.866667 0.600000
vt 0.866667 0.533333
vt 0.866667 0.666667
vt 0.733333 0.666667
vt 0.800000 0.466667
vt 0.800000 0.533333
vt 0.800000 0.600000
vt 0.800000 0.666667
vt 0.248767 0.733333
vt 0.375000 0.285769
vt 0.375902 0.285245
vt 0.376239 0.285074
vt 0.376290 0.285049
vt 0.376317 0.285036
vt 0.376339 0.285025
vt 0.376366 0.285013
vt 0.376418 0.284989
vt 0.376778 0.284829
vt 0.541429 0.409731
vt 0.559975 0.414769
vt 0.590543 0.405175
vt 0.632611 0.370273
vt 0.669336 0.327941
vt 0.683655 0.323114
vt 0.683165 0.350700
vt 0.658156 0.415266
vt 0.388675 0.922874
vt 0.382219 0.933417
vt 0.380075 0.936683
vt 0.378640 0.938784
vt 0.377441 0.940483
vt 0.375038 0.943716
vt 0.375000 0.943765
vt 0.533333 0.266667
vt 0.251379 0.733333
vt 0.115217 0.400000
vt 0.115612 0.333333
vt 0.466667 0.400000
vt 0.466667 0.466667
vt 0.466667 0.333333
vt 0.117125 0.266667
vt 0.379347 0.200000
vt 0.466667 0.266667
vt 0.400000 0.666667
vt 0.379074 0.200000
vt 0.374263 0.200000
vt 0.333333 0.666667
vt 0.266667 0.666667
vt 0.400000 0.600000
vt 0.378563 0.200000
vt 0.333333 0.600000
vt 0.251195 0.600000
vt 0.266667 0.600000
vt 0.400000 0.533333
vt 0.333333 0.266667
vt 0.333333 0.533333
vt 0.266667 0.266667
vt 0.252191 0.533333
vt 0.266667 0.533333
vt 0.400000 0.266667
vt 0.333333 0.466667
vt 0.400000 0.466667
vt 0.250253 0.666667
vt 0.266667 0.466667
vt 0.400000 0.333333
vt 0.400000 0.400000
vt 0.333333 0.333333
vt 0.266667 0.400000
vt 0.251877 0.400000
vt 0.266667 0.333333
vt 0.250988 0.333333
vt 0.333333 0.400000
vt 0.248661 0.266667
vt 0.252009 0.466667
vt 0.375000 0.018745
vt 0.372861 0.018745
vt 0.372437 0.018745
vt 0.372199 0.018745
vt 0.372010 0.018745
vt 0.371770 0.018745
vt 0.371301 0.018745
vt 0.367691 0.018745
vt 0.229533 0.013845
vt 0.212163 0.028331
vt 0.200758 0.059698
vt 0.190604 0.102522
vt 0.190676 0.149400
vt 0.198559 0.192224
vt 0.206688 0.223591
vt 0.215214 0.238077
vt 0.366738 0.238077
vt 0.373051 0.238077
vt 0.373826 0.238077
vt 0.374216 0.238077
vt 0.374532 0.238077
vt 0.374902 0.238077
vt 0.375000 0.238077
vt 0.375000 0.448672
vt 0.375000 0.183776
vt 0.375000 0.352908
vt 0.375000 0.215697
vt 0.375000 0.603326
vt 0.375000 0.132225
vt 0.375000 0.768759
vt 0.375000 0.077080
vt 0.375000 0.858882
vt 0.375000 0.047039
vt 0.375000 0.904285
vt 0.375000 0.031905
vt 0.375000 0.912163
vt 0.375000 0.029279
vn 0.682684 0.146307 -0.715917
vn 0.681158 -0.193850 -0.706007
vn 0.490681 -0.195106 -0.849215
vn 0.493696 0.153034 -0.856063
vn -0.969596 0.128797 0.208076
vn -0.798415 0.139745 0.585666
vn -0.763875 0.322674 0.558906
vn -0.934240 0.295303 0.199980
vn -0.717710 -0.457335 0.525106
vn -0.578128 -0.696147 0.425614
vn -0.340500 -0.726428 0.596961
vn -0.439587 -0.467725 0.766809
vn 0.000000 1.000000 0.000000
vn 0.000000 1.000000 0.000000
vn 0.000000 1.000000 -0.000000
vn 0.000000 1.000000 -0.000000
vn 0.463914 0.356342 -0.811051
vn 0.648884 0.341669 -0.679862
vn 0.068292 -0.995085 -0.071707
vn 0.090673 -0.995056 -0.040532
vn -0.017434 -0.999833 0.005465
vn -0.015168 -0.999822 0.011249
vn -0.542733 0.831206 0.120574
vn -0.805320 0.567915 0.170096
vn -0.670918 0.561622 0.484200
vn -0.473722 0.803476 0.360573
vn 0.009682 -0.999846 -0.014632
vn -0.046779 -0.995642 0.080675
vn -0.077512 -0.995427 0.055823
vn 0.013993 -0.999851 -0.010094
vn 0.000000 1.000000 0.000000
vn 0.000000 1.000000 0.000000
vn 0.483543 -0.711534 -0.509810
vn 0.662843 -0.686348 -0.299275
vn 0.411210 0.554488 -0.723498
vn 0.572079 0.566675 -0.592963
vn 0.612586 -0.463196 -0.640459
vn 0.812492 -0.455314 -0.364070
vn -0.794572 -0.192275 0.575921
vn -0.491145 -0.196349 0.848660
vn -0.490469 0.153894 0.857763
vn 0.322508 0.759132 -0.565427
vn 0.411748 0.792041 -0.450705
vn 0.004244 -0.999839 -0.017424
vn -0.009466 -0.995748 0.091629
vn 0.000000 1.000000 -0.000000
vn 0.000000 1.000000 -0.000000
vn -0.017832 -0.999840 -0.001090
vn 0.099769 -0.995011 -0.000144
vn -0.069317 -0.742497 0.666253
vn -0.464317 0.358218 0.809993
vn 0.903818 0.134754 -0.406144
vn 0.897129 -0.190687 -0.398496
vn -0.419220 0.552085 0.720733
vn -0.091232 -0.473942 0.875817
vn 0.866633 0.313255 -0.388354
vn -0.313203 0.759468 0.570186
vn -0.016147 -0.999842 -0.007460
vn 0.089901 -0.995161 0.039653
vn 0.740515 -0.672040 -0.000000
vn -0.007319 -0.999837 -0.016523
vn 0.028846 -0.995676 0.088303
vn -0.001272 -0.999831 -0.018327
vn 0.000000 1.000000 0.000000
vn 0.000000 1.000000 0.000000
vn 0.000000 1.000000 0.000000
vn 0.000000 1.000000 0.000000
vn 0.000000 1.000000 0.000000
vn 0.000000 1.000000 -0.000165
vn 0.000000 1.000000 -0.000279
vn 0.000000 1.000000 -0.000009
vn 0.000000 1.000000 0.000000
vn 0.747668 0.575679 -0.331040
vn -0.012558 -0.999839 -0.012810
vn 0.063889 -0.995446 0.070751
vn 0.892424 -0.451197 -0.000000
vn 0.510811 0.825984 -0.238375
vn 0.000000 1.000000 -0.000000
vn 0.000000 1.000000 -0.000000
vn 0.000000 1.000000 -0.000000
vn 0.000000 1.000000 0.000000
vn -0.102697 -0.198791 0.974646
vn -0.102055 0.162121 0.981479
vn 0.206025 -0.738265 0.642276
vn 0.000000 1.000000 0.000000
vn 0.662843 -0.686348 0.299275
vn -0.095881 0.379166 0.920348
vn 0.991663 0.128856 -0.000000
vn 0.981967 -0.189055 -0.000000
vn 0.270932 -0.472530 0.838637
vn -0.088326 0.546654 0.832687
vn 0.812491 -0.455314 0.364070
vn 0.000000 1.000000 0.000000
vn 0.954277 0.298924 -0.000000
vn -0.068479 0.730597 0.679367
vn 0.463910 -0.715723 0.522043
vn 0.814814 0.579722 -0.000000
vn 0.000000 1.000000 0.000000
vn 0.000000 1.000000 0.000000
vn 0.542199 0.840250 -0.000000
vn 0.000000 1.000000 0.000000
vn 0.000000 1.000000 0.000000
vn 0.590489 -0.464595 0.659904
vn 0.000000 1.000000 -0.000000
vn 0.302611 0.159662 0.939646
vn 0.303529 -0.197992 0.932024
vn 0.897129 -0.190688 0.398495
vn 0.903819 0.134755 0.406144
vn 0.000000 1.000000 -0.000000
vn 0.285099 0.373694 0.882650
vn 0.259180 0.552144 0.792442
vn 0.195878 0.743531 0.639370
vn 0.866633 0.313256 0.388353
vn 0.747667 0.575679 0.331040
vn 0.510811 0.825984 0.238375
vn 0.657194 -0.194512 0.728191
vn 0.658399 0.148102 0.737955
vn 0.625671 0.345716 0.699297
vn 0.554032 0.564810 0.611587
vn 0.401045 0.786928 0.468943
vn 0.000000 1.000000 0.000000
vn -0.915851 0.000000 -0.401519
vn -0.915851 0.000000 -0.401519
vn -0.915851 0.000000 -0.401519
vn -0.915851 0.000000 -0.401519
vn -0.960570 -0.189250 0.203692
vn 0.043534 -0.996066 -0.077180
vn 0.000000 1.000000 0.000000
vn 0.442435 -0.463282 -0.767868
vn 0.416147 -0.549468 -0.724504
vn -0.095455 -0.995233 0.019996
vn 0.016602 -0.999853 -0.004260
vn 0.208503 -0.905043 -0.370706
vn -0.873570 -0.449346 0.186988
vn -0.725931 -0.669727 0.156494
vn -0.542733 0.831206 -0.120574
vn -0.805320 0.567915 -0.170097
vn 0.017161 -0.999850 0.002203
vn -0.096062 -0.995169 -0.020277
vn -0.377429 0.773226 -0.509578
vn -0.206822 0.736141 -0.644454
vn -0.252667 0.558756 -0.789906
vn -0.504792 0.554716 -0.661420
vn 0.012827 -0.999827 0.013438
vn -0.057819 -0.995302 -0.077666
vn -0.018602 -0.998110 -0.058578
vn -0.670918 0.561622 -0.484200
vn -0.473722 0.803477 -0.360573
vn -0.934240 0.295303 -0.199980
vn -0.763875 0.322674 -0.558906
vn 0.015684 -0.999841 0.008455
vn -0.078601 -0.995265 -0.057174
vn -0.569819 0.343436 -0.746564
vn -0.284550 0.369535 -0.884576
vn -0.969596 0.128798 -0.208076
vn -0.798415 0.139745 -0.585667
vn -0.603018 0.146970 -0.784072
vn -0.304519 0.163076 -0.938442
vn -0.302740 -0.203775 -0.931034
vn -0.601253 -0.193049 -0.775388
vn -0.794572 -0.192276 -0.575921
vn -0.960570 -0.189251 -0.203692
vn -0.725931 -0.669726 -0.156495
vn -0.578128 -0.696147 -0.425614
vn -0.873569 -0.449346 -0.186988
vn -0.717710 -0.457336 -0.525106
vn -0.540949 -0.460645 -0.703691
vn -0.271773 -0.472541 -0.838358
vn -0.255948 -0.554433 -0.791893
vn -0.425817 -0.709773 -0.561161
vn -0.125243 -0.909661 -0.396018
vn 0.901779 0.000000 -0.432197
vn 0.901779 0.000000 -0.432197
vn 0.901779 0.000001 -0.432197
vn 0.901779 0.000001 -0.432197
vn 0.901779 0.000001 -0.432197
vn 0.901779 0.000001 -0.432197
vn 0.901779 0.000001 -0.432197
vn 0.901779 0.000001 -0.432197
vn 0.901779 0.000001 -0.432197
vn 0.901779 0.000001 -0.432197
vn 0.901779 0.000001 -0.432197
vn 0.901779 0.000000 -0.432197
vn 0.901779 0.000000 -0.432197
vn 0.901779 -0.000000 -0.432197
vn 0.901779 -0.000000 -0.432197
vn 0.901779 -0.000000 -0.432197
vn 0.901779 -0.000000 -0.432197
vn 0.901779 -0.000000 -0.432197
vn 0.901779 -0.000000 -0.432197
vn 0.901779 -0.000000 -0.432197
vn 0.901779 -0.000000 -0.432197
vn 0.901779 -0.000000 -0.432197
vn 0.901779 -0.000000 -0.432197
vn 0.901779 0.000000 -0.432197
vn 0.901779 0.000000 -0.432197
vn 0.901779 0.000000 -0.432197
vn 0.901779 0.000000 -0.432197
vn 0.901779 0.000000 -0.432197
vn 0.901779 0.000000 -0.432197
vn -0.915851 0.000000 -0.401519
vn -0.915851 0.000000 -0.401519
vn -0.915851 0.000000 -0.401519
vn -0.915851 0.000000 -0.401519
vn -0.915851 0.000000 -0.401519
vn -0.915851 0.000000 -0.401519
vn -0.915851 0.000000 -0.401519
vn -0.915851 0.000000 -0.401519
vn -0.915851 0.000000 -0.401519
vn -0.915851 0.000000 -0.401519
vn -0.915851 -0.000000 -0.401519
vn -0.915851 -0.000000 -0.401519
vn -0.915851 -0.000000 -0.401519
vn -0.915851 -0.000000 -0.401519
vn -0.915851 0.000000 -0.401519
vn -0.915851 0.000000 -0.401519
vn -0.915851 0.000000 -0.401519
vn -0.915851 0.000000 -0.401519
vn -0.915851 0.000000 -0.401519
vn -0.915851 -0.000000 -0.401519
vn -0.915851 -0.000000 -0.401519
vn -0.915851 -0.000000 -0.401519
vn -0.915851 -0.000000 -0.401519
vn -0.915851 -0.000000 -0.401519
vn -0.915851 -0.000000 -0.401519
vn -0.915851 -0.000000 -0.401519
vn -0.915851 -0.000000 -0.401519
vn 0.901779 0.000000 -0.432197
s 1
g CheeseWheel
usemtl initialShadingGroup
f 1/1/1 2/2/2 3/3/3 16/16/4
f 5/5/5 6/6/6 4/4/7 28/28/8
f 8/8/9 9/9/10 7/7/11 34/34/12
s 4
f 12/12/13 13/13/14 14/14/15 15/15/16
s 1
f 1/1/1 16/16/4 30/30/17 29/29/18
f 17/17/19 33/33/20 22/22/21 21/21/22
f 19/19/23 20/20/24 18/18/25 35/35/26
f 10/10/27 23/23/28 113/142/29 11/11/30
s 4
f 15/15/16 14/14/15 24/24/31 25/25/32
s 1
f 17/17/19 26/26/33 27/27/34 33/33/20
f 28/28/8 4/4/7 18/18/25 20/20/24
f 23/23/28 7/7/11 9/9/10 113/142/29
f 29/29/18 30/30/17 49/50/35 50/51/36
f 26/26/33 31/31/37 32/32/38 27/27/34
f 6/6/6 37/37/39 36/36/40 46/47/41
f 38/38/42 39/39/43 50/51/36 49/50/35
f 10/10/27 40/40/44 42/42/45 23/23/28
s 4
f 19/19/46 41/41/47 25/25/32 24/24/31
s 1
f 43/43/48 22/22/21 33/44/20 51/52/49
f 7/7/11 23/23/28 42/42/45 48/49/50
f 44/45/51 4/4/7 6/6/6 46/47/41
f 36/36/40 37/37/39 8/8/9 34/34/12
f 2/2/2 1/1/1 45/46/52 52/53/53
f 47/48/54 18/18/25 4/4/7 44/45/51
f 34/34/12 7/7/11 48/49/50 70/73/55
f 45/46/52 1/1/1 29/29/18 64/66/56
f 35/35/26 18/18/25 47/48/54 72/75/57
f 53/54/58 43/43/48 51/52/49 74/77/59
f 33/44/20 27/55/34 54/56/60 51/52/49
f 66/68/61 73/76/62 42/42/45 40/40/44 65/67/63
s 4
f 55/57/64 56/58/65 57/59/66
f 56/58/65 55/57/64 58/60/67
f 56/58/65 58/60/67 59/61/68
f 56/58/65 59/61/68 60/62/69
f 61/63/70 56/58/65 60/62/69
f 62/64/71 56/58/65 61/63/70
f 63/65/72 56/58/65 62/64/71
s 1
f 64/66/56 29/29/18 50/51/36 76/79/73
f 2/2/2 52/53/53 32/32/38 31/31/37
f 67/69/74 53/54/58 74/77/59 78/81/75
f 27/55/34 32/70/38 68/71/76 54/56/60
f 50/51/36 39/39/43 69/72/77 76/79/73
s 4
f 35/35/78 71/74/79 41/41/47 19/19/46
f 39/39/80 56/58/65 69/72/81
s 1
f 46/47/41 36/36/40 75/78/82 82/87/83
f 77/80/84 48/49/50 42/42/45 73/76/62
s 4
f 57/59/66 56/58/65 39/39/80 38/38/85
s 1
f 74/77/59 51/52/49 54/56/60 84/89/86
f 79/82/87 44/45/51 46/47/41 82/87/83
f 52/85/53 45/83/52 80/84/88 86/92/89
f 81/86/90 70/73/55 48/49/50 77/80/84
f 83/88/91 47/48/54 44/45/51 79/82/87
f 84/89/86 54/56/60 68/71/76 90/97/92
s 4
f 69/72/81 56/58/65 85/90/93
s 1
f 80/84/88 45/83/52 64/91/56 88/95/94
f 72/75/57 47/48/54 83/88/91 91/99/95
f 78/81/75 74/77/59 84/89/86 87/93/96
f 73/76/62 78/81/75 87/93/96 77/80/84
f 88/95/94 64/91/56 76/94/73 96/104/97
s 4
f 72/75/98 89/96/99 71/74/79 35/35/78
s 1
f 76/94/73 69/98/77 85/90/100 96/104/97
s 4
f 92/100/101 56/58/65 91/99/102
s 1
f 87/93/96 84/89/86 90/97/92 93/101/103
f 77/80/84 87/93/96 93/101/103 81/86/90
s 4
f 85/90/93 56/58/65 94/102/104
s 1
f 95/103/105 82/87/83 75/78/82 99/107/106
f 97/105/107 86/92/89 80/84/88 102/110/108
f 75/78/82 36/36/40 34/34/12 70/73/55
s 4
f 98/106/109 56/58/65 92/100/101
s 1
f 79/82/87 82/87/83 95/103/105 100/108/110
s 4
f 94/102/104 56/58/65 98/106/109
s 1
f 83/88/91 79/82/87 100/108/110 104/112/111
f 92/100/112 91/99/95 83/88/91 104/112/111
f 80/84/88 88/95/94 101/109/113 102/110/108
f 88/95/94 96/104/97 103/111/114 101/109/113
f 103/111/114 96/104/97 85/90/100 94/102/115
f 52/85/53 86/92/89 68/71/76 32/70/38
f 105/113/116 97/105/107 102/110/108 106/114/117
f 106/114/117 95/103/105 99/107/106 105/113/116
f 100/108/110 95/103/105 106/114/117 107/115/118
f 104/112/111 100/108/110 107/115/118 108/116/119
f 98/106/120 92/100/112 104/112/111 108/116/119
f 102/110/108 101/109/113 107/115/118 106/114/117
f 101/109/113 103/111/114 108/116/119 107/115/118
f 108/116/119 103/111/114 94/102/115 98/106/120
f 99/107/106 75/78/82 70/73/55 81/86/90
f 86/92/89 97/105/107 90/97/92 68/71/76
f 105/113/116 99/107/106 81/86/90 93/101/103
f 97/105/107 105/113/116 93/101/103 90/97/92
s 4
f 91/99/102 56/58/65 63/65/72 109/117/121 89/96/99 72/75/98
s 10
f 152/208/122 49/128/123 30/129/124 151/206/125
s 1
f 37/37/39 6/6/6 5/5/5 116/147/126
f 17/17/19 21/21/22 112/149/127
s 4
f 114/143/128 13/13/14 12/12/13
s 1
f 3/3/3 2/2/2 31/31/37 110/144/129
f 111/145/130 110/144/129 31/31/37 26/26/33
f 11/11/30 113/142/29 119/151/131 118/150/132
f 112/149/127 111/145/133 26/26/33 17/17/19
f 9/9/10 8/8/9 115/146/134 117/148/135
f 113/142/29 9/9/10 117/148/135 119/151/131
f 19/19/23 24/24/136 120/152/137 20/20/24
f 121/153/138 118/150/132 119/151/131 136/168/139
f 13/13/140 114/143/141 139/171/142 124/156/143
f 122/154/144 133/165/145 149/181/146
f 123/155/147 120/152/137 24/24/136 14/14/148
f 37/37/39 116/147/126 115/146/134 8/8/9
f 14/14/148 13/13/140 124/156/143 123/155/147
f 125/157/149 120/152/137 123/155/147 127/159/150
f 126/158/151 121/153/138 136/168/139 131/163/152
f 20/20/24 120/152/137 125/157/149 28/28/8
f 127/159/150 123/155/147 124/156/143 129/161/153
f 122/154/144 126/158/151 131/163/152 133/165/145
f 128/160/154 129/161/153 124/156/143 139/171/142
f 130/162/155 125/157/149 127/159/150 132/164/156
f 132/164/156 127/159/150 129/161/153 135/167/157
f 28/28/8 125/157/149 130/162/155 5/5/5
f 134/166/158 135/167/157 129/161/153 128/160/154
f 135/167/157 134/166/158 150/182/159 140/172/160
f 137/169/161 138/170/162 130/162/155 132/164/156
f 132/164/156 135/167/157 140/172/160 137/169/161
f 131/163/152 136/168/139 141/173/163 143/175/164
f 143/175/164 141/173/163 142/174/165 148/180/166
f 144/176/167 145/177/168 147/179/169 146/178/170
f 146/178/170 147/179/171 149/181/146 133/165/145
f 133/165/145 131/163/152 143/175/164 146/178/170
f 148/180/166 144/176/167 146/178/170 143/175/164
f 5/5/5 130/162/155 138/170/162 116/147/126
f 116/147/126 138/170/162 142/174/165 115/146/134
f 115/146/134 142/174/165 141/173/163 117/148/135
f 117/148/135 141/173/163 136/168/139 119/151/131
f 138/170/162 137/169/161 148/180/166 142/174/165
f 145/177/168 144/176/167 140/172/160 150/182/159
f 137/169/161 140/172/160 144/176/167 148/180/166
s 13
f 147/192/172 157/219/173 65/183/174 40/184/175 10/185/176 11/186/177 118/187/178 121/188/179 126/189/180 122/190/181 149/191/182
s 1
f 67/69/74 78/81/75 73/76/62 66/68/61
s 13
f 151/207/183 128/196/184 139/197/185 152/209/186
f 152/209/186 139/197/185 114/198/187 12/199/188 15/200/189 25/201/190 41/202/191 71/203/192 89/204/193 109/205/194
f 153/211/195 134/195/196 128/196/184 151/207/183
f 154/213/197 150/194/198 134/195/196 153/211/195
f 155/215/199 145/193/200 150/194/198 154/213/197
s 10
f 109/118/201 63/119/202 62/120/203 61/121/204 60/122/205 59/123/206 58/124/207 55/125/208 57/126/209 38/127/210 49/128/123 152/208/122
f 151/206/125 30/129/124 16/130/211 153/210/212
f 154/212/213 3/131/214 110/132/215 155/214/216
f 153/210/212 16/130/211 3/131/214 154/212/213
f 155/214/216 110/132/215 111/133/217 157/218/218 156/216/219
f 157/218/218 111/133/217 112/134/220 21/135/221 22/136/222 43/137/223 53/138/224 67/139/225 66/140/226 65/141/227
s 13
f 156/217/228 157/219/173 147/192/172 145/193/200 155/215/199
